<svg width="24" height="24" viewBox="0 0 24 24" fill="none" xmlns="http://www.w3.org/2000/svg">
<mask id="mask0_565_55505" style="mask-type:luminance" maskUnits="userSpaceOnUse" x="0" y="0" width="24" height="24">
<path d="M24 0L0 0L0 24H24V0Z" fill="white"/>
</mask>
<g mask="url(#mask0_565_55505)">
<mask id="mask1_565_55505" style="mask-type:luminance" maskUnits="userSpaceOnUse" x="-1" y="0" width="25" height="24">
<path d="M-0.000488281 3.33786e-06H23.9995V24H-0.000488281L-0.000488281 3.33786e-06Z" fill="white"/>
</mask>
<g mask="url(#mask1_565_55505)">
<path d="M15.3688 18.7496L19.9449 14.2405C20.5434 13.6427 20.8409 12.8073 20.7551 11.9658L19.9531 4.09262L12.0594 3.2903C11.2178 3.20476 10.3823 3.5026 9.7846 4.10134L1.75886 12.1006C0.662402 13.1988 0.662778 14.9777 1.75975 16.0755L7.91664 22.2375C9.01449 23.3363 10.7952 23.363 11.894 22.2652" stroke="#F04438" stroke-width="2" stroke-miterlimit="10" stroke-linecap="round" stroke-linejoin="round"/>
<path d="M16.677 7.35889C16.677 7.35889 23.0643 7.02289 23.0615 2.28111V2.24379C23.0615 1.52206 22.4765 0.937013 21.7547 0.937013C21.7547 0.937013 18.374 1.21826 17.4853 3.60889" stroke="#F04438" stroke-width="2" stroke-miterlimit="10" stroke-linecap="round" stroke-linejoin="round"/>
</g>
</g>
<path d="M17.7056 14.3152C15.9506 12.5603 13.0707 12.5603 11.3157 14.3152C9.56077 16.0702 9.56077 18.9501 11.3157 20.7051C13.0707 22.46 15.9056 22.46 17.6606 20.7051C19.4155 18.9501 19.4605 16.0702 17.7056 14.3152ZM15.7706 19.4001L14.5107 18.1401L13.2507 19.4001L12.6207 18.7701L13.8807 17.5102L12.6207 16.2502L13.2507 15.6202L14.5107 16.8802L15.7706 15.6202L16.4006 16.2502L15.1406 17.5102L16.4006 18.7701L15.7706 19.4001Z" fill="#F04438"/>
<path d="M15.7706 19.4001L14.5107 18.1401L13.2507 19.4001L12.6207 18.7701L13.8807 17.5102L12.6207 16.2502L13.2507 15.6202L14.5107 16.8802L15.7706 15.6202L16.4006 16.2502L15.1406 17.5102L16.4006 18.7701L15.7706 19.4001Z" fill="white"/>
<path d="M18.1581 13.8627C16.1532 11.8578 12.8681 11.8578 10.8632 13.8627C8.85831 15.8676 8.85831 19.1527 10.8632 21.1576C12.8681 23.1625 16.1082 23.1625 18.1131 21.1576C20.1097 19.1611 20.1712 15.8758 18.1581 13.8627Z" stroke="white" stroke-width="1.27997"/>
</svg>
