<svg width="20" height="20" viewBox="0 0 20 20" fill="none" xmlns="http://www.w3.org/2000/svg">
<g clip-path="url(#clip0_28_405)">
<path d="M9.99997 1.66663C14.6025 1.66663 18.3333 5.39746 18.3333 9.99996C18.3333 14.6025 14.6025 18.3333 9.99997 18.3333C8.5816 18.3354 7.18637 17.9739 5.94747 17.2833L5.6933 17.135L3.16663 17.8783C3.02914 17.9188 2.88357 17.9235 2.74373 17.892C2.60389 17.8605 2.47442 17.7938 2.36758 17.6983C2.26074 17.6027 2.18009 17.4814 2.13325 17.3459C2.08642 17.2105 2.07496 17.0653 2.09997 16.9241L2.12163 16.8333L2.86497 14.3066C2.0791 13.0077 1.66461 11.5181 1.66663 9.99996C1.66663 5.39746 5.39747 1.66663 9.99997 1.66663ZM9.99997 3.33329C8.80632 3.33308 7.63451 3.65334 6.60691 4.26064C5.5793 4.86794 4.7336 5.74 4.1581 6.78574C3.58261 7.83149 3.29844 9.01257 3.33526 10.2056C3.37209 11.3987 3.72857 12.56 4.36747 13.5683C4.53247 13.8283 4.6033 14.1483 4.54747 14.4658L4.51497 14.6016L4.14747 15.8525L5.3983 15.485C5.75913 15.3783 6.13413 15.4433 6.43163 15.6325C7.30524 16.1856 8.29554 16.528 9.32425 16.6325C10.353 16.737 11.3919 16.6008 12.3589 16.2346C13.3259 15.8684 14.1945 15.2824 14.8959 14.5227C15.5974 13.763 16.1126 12.8506 16.4007 11.8575C16.6888 10.8645 16.742 9.81803 16.556 8.80088C16.37 7.78374 15.95 6.82379 15.3291 5.99694C14.7083 5.17009 13.9036 4.49899 12.9786 4.03669C12.0537 3.5744 11.034 3.33359 9.99997 3.33329ZM7.58497 5.98663C7.67723 5.94667 7.7783 5.93143 7.87824 5.94238C7.97819 5.95334 8.07355 5.99013 8.15497 6.04913C8.57497 6.35579 8.9083 6.76746 9.19497 7.16913L9.46747 7.56413L9.59497 7.75163C9.66853 7.85919 9.70464 7.98798 9.69771 8.11812C9.69078 8.24825 9.6412 8.37248 9.55663 8.47163L9.49413 8.53496L8.72413 9.10663C8.68707 9.13346 8.66099 9.17281 8.65073 9.2174C8.64046 9.26199 8.64671 9.30879 8.6683 9.34913C8.8433 9.66579 9.15247 10.1383 9.50747 10.4933C9.8633 10.8483 10.3575 11.1783 10.6958 11.3725C10.7691 11.4141 10.8575 11.4008 10.9175 11.3466L10.9491 11.3091L11.45 10.5466C11.5419 10.4241 11.6777 10.342 11.8289 10.3175C11.98 10.2929 12.1348 10.3279 12.2608 10.415L12.7133 10.7308C13.1633 11.0516 13.5958 11.3966 13.9383 11.8341C14.002 11.9162 14.0425 12.0138 14.0555 12.1169C14.0686 12.22 14.0537 12.3246 14.0125 12.42C13.6825 13.19 12.8466 13.8458 11.9783 13.8141L11.8458 13.8058L11.6866 13.7908C11.6566 13.7872 11.6266 13.7833 11.5966 13.7791L11.3983 13.7458C10.6283 13.6008 9.39413 13.1641 8.11497 11.8858C6.83663 10.6066 6.39997 9.37246 6.25497 8.60246L6.22163 8.40413L6.2008 8.23079L6.18997 8.08496C6.18865 8.06414 6.18754 8.0433 6.18663 8.02246C6.15497 7.15246 6.81413 6.31663 7.58497 5.98663Z" fill="#929292"/>
</g>
<defs>
<clipPath id="clip0_28_405">
<rect width="20" height="20" fill="white"/>
</clipPath>
</defs>
</svg>
