<svg width="20" height="20" viewBox="0 0 20 20" fill="none" xmlns="http://www.w3.org/2000/svg">
<g clip-path="url(#clip0_28_420)">
<path fill-rule="evenodd" clip-rule="evenodd" d="M9.99996 1.66663C5.39746 1.66663 1.66663 5.39746 1.66663 9.99996C1.66663 11.575 2.10413 13.05 2.86496 14.3066L2.12163 16.8333C2.07895 16.9784 2.07614 17.1322 2.1135 17.2788C2.15085 17.4253 2.227 17.5591 2.33393 17.666C2.44085 17.7729 2.57461 17.8491 2.72114 17.8864C2.86767 17.9238 3.02156 17.921 3.16663 17.8783L5.69329 17.135C6.99219 17.9209 8.48181 18.3354 9.99996 18.3333C14.6025 18.3333 18.3333 14.6025 18.3333 9.99996C18.3333 5.39746 14.6025 1.66663 9.99996 1.66663ZM8.11496 11.8858C9.80079 13.5708 11.41 13.7933 11.9783 13.8141C12.8425 13.8458 13.6841 13.1858 14.0116 12.42C14.053 12.3247 14.068 12.2201 14.0551 12.117C14.0422 12.014 14.0018 11.9163 13.9383 11.8341C13.4816 11.2508 12.8641 10.8316 12.2608 10.415C12.1348 10.3279 11.98 10.2929 11.8289 10.3175C11.6777 10.342 11.5419 10.4241 11.45 10.5466L10.95 11.3091C10.9237 11.3501 10.8827 11.3795 10.8355 11.3913C10.7882 11.4031 10.7382 11.3963 10.6958 11.3725C10.3566 11.1783 9.86246 10.8483 9.50746 10.4933C9.15246 10.1383 8.84246 9.66663 8.66829 9.34913C8.6467 9.30879 8.64046 9.26199 8.65072 9.2174C8.66099 9.17282 8.68707 9.13346 8.72413 9.10663L9.49413 8.53496C9.60401 8.43941 9.67493 8.30679 9.69337 8.16235C9.71181 8.0179 9.67649 7.87172 9.59413 7.75163C9.22079 7.20496 8.78579 6.50996 8.15496 6.04913C8.07355 5.99013 7.97818 5.95334 7.87824 5.94238C7.77829 5.93143 7.67722 5.94667 7.58496 5.98663C6.81829 6.31496 6.15496 7.15663 6.18663 8.02246C6.20746 8.59079 6.42996 10.2 8.11496 11.8858Z" fill="#305F72"/>
</g>
<defs>
<clipPath id="clip0_28_420">
<rect width="20" height="20" fill="white"/>
</clipPath>
</defs>
</svg>
